# xmcd
# Copyright (C) 1995-1998 Ti Kan
#
# Track frame offsets:
#       150
#       17124
#       42883
#       53218
#       71499
#       97567
#       115224
#       151068
#       167985
#       187700
#       197837
#       211058
#       221312
#
# Disc length: 3127 seconds
#
# Revision: 0
# Processed by: cddbd v1.5.2PL0 Copyright (c) Steve Scherf et al.
# Submitted via: CD-Transfer v1.0
#
DISCID=a00c350d
DTITLE=Sharon Isbin - 
DYEAR=03
DGENRE=
TTITLE0=Vivaldi - Concerto in D Major - Allegro
TTITLE1=Vivaldi - Concerto in D Major - Largo
TTITLE2=Vivaldi - Concerto in D major - Allegro 
TTITLE3=J.B. Bach - Concerto in A minor - Allegro
TTITLE4=J.B. Bach - Concerto in A minor - Andante
TTITLE5=J.B. Bach - Concerto in A minor - Allegro assai 
TTITLE6=Albinoni - Adagio
TTITLE7=Vivaldi - Concerto in A major - Allegro non molto
TTITLE8=Vivaldi - Concerto in A major - Larghetto
TTITLE9=Vivaldi - Concerto in A major - Allegro 
TTITLE10=J.S. Bach - Adagio from Concerto in F minor 
TTITLE11=J.S. Bach - Prelude for lute in D minor
TTITLE12=J.S. Bach - Jesu, Joy of Man's Desiring 
EXTD=
EXTT0=
EXTT1=
EXTT2=
EXTT3=
EXTT4=
EXTT5=
EXTT6=
EXTT7=
EXTT8=
EXTT9=
EXTT10=
EXTT11=
EXTT12=
PLAYORDER=
